<svg width="1400" height="420" viewBox="0 0 1400 420" fill="none" xmlns="http://www.w3.org/2000/svg">
  <defs>
    <linearGradient id="lime" x1="0" y1="0" x2="1" y2="1">
      <stop stop-color="#B8FF5A"/>
      <stop offset="1" stop-color="#6EDB2F"/>
    </linearGradient>
    <filter id="soft" x="0" y="0" width="430" height="420" filterUnits="userSpaceOnUse" color-interpolation-filters="sRGB">
      <feDropShadow dx="0" dy="16" stdDeviation="18" flood-color="#000000" flood-opacity="0.14"/>
    </filter>
  </defs>

  <g filter="url(#soft)">
    <g transform="translate(20 22)">
      <g transform="translate(18 4) rotate(-8 154 160)">
        <rect x="36" y="286" width="64" height="108" rx="22" fill="#EEF6FF"/>
        <rect x="52" y="282" width="34" height="118" rx="16" fill="#0E2233" opacity="0.92"/>

        <path d="M112 12C93 12 78 27 78 46V233C78 263 102 287 132 287H208C280 287 338 229 338 157V122C338 61 289 12 228 12H112Z" fill="#F7FBFF"/>
        <path d="M135 34C118 34 104 48 104 65V226C104 247 121 264 142 264H205C262 264 308 218 308 161V128C308 76 266 34 214 34H135Z" fill="#122838"/>

        <path d="M209 34H220C272 34 314 76 314 128V159C314 217 267 264 209 264V34Z" fill="#F7FBFF"/>

        <path d="M218 62V235" stroke="#122838" stroke-width="8" stroke-linecap="round"/>
        <path d="M248 62V235" stroke="#122838" stroke-width="8" stroke-linecap="round" opacity="0.82"/>
        <path d="M278 77V220" stroke="#122838" stroke-width="8" stroke-linecap="round" opacity="0.82"/>
        <path d="M218 93H305" stroke="#122838" stroke-width="8" stroke-linecap="round" opacity="0.82"/>
        <path d="M218 124H314" stroke="#122838" stroke-width="8" stroke-linecap="round" opacity="0.82"/>
        <path d="M218 155H314" stroke="#122838" stroke-width="8" stroke-linecap="round" opacity="0.82"/>
        <path d="M218 186H303" stroke="#122838" stroke-width="8" stroke-linecap="round" opacity="0.82"/>
        <path d="M218 217H280" stroke="#122838" stroke-width="8" stroke-linecap="round" opacity="0.82"/>

        <circle cx="145" cy="88" r="23" fill="url(#lime)"/>
      </g>
    </g>
  </g>

  <g aria-label="PickleballMatch.fun">
    <path d="M441.6 283V129.4H502.1C536.3 129.4 559.7 150.9 559.7 182.8C559.7 214.9 536.3 236.6 502.1 236.6H478.8V283H441.6ZM478.8 204.7H498.9C514.1 204.7 522.1 196.3 522.1 182.8C522.1 169.6 514.1 161.2 498.9 161.2H478.8V204.7Z" fill="#0F2233"/>
    <path d="M578.4 145.7C567.2 145.7 558.3 137.4 558.3 126.6C558.3 115.8 567.2 107.6 578.4 107.6C589.6 107.6 598.5 115.8 598.5 126.6C598.5 137.4 589.6 145.7 578.4 145.7ZM560.4 283V161.2H596.6V283H560.4Z" fill="#0F2233"/>
    <path d="M621.1 283V116.2H657.3V214.8L705.8 161.2H748.7L699.3 214L751.8 283H708.3L673.8 236.7L657.3 254.4V283H621.1Z" fill="#0F2233"/>
    <path d="M757.3 283V116.2H793.5V214.8L842 161.2H884.9L835.5 214L888 283H844.5L810 236.7L793.5 254.4V283H757.3Z" fill="#0F2233"/>
    <path d="M945.5 246.2L975.5 264.8C963.8 279.5 944.4 288.5 919.3 288.5C878.9 288.5 849.7 261.7 849.7 221.8C849.7 183.1 878 155.8 916 155.8C951.9 155.8 978.5 181 978.5 218.6C978.5 224.1 978.1 228.5 977.5 232H885.2C888.8 248.1 901.2 256.9 919.7 256.9C930.4 256.9 939.7 253.1 945.5 246.2ZM885.7 208.4H943.5C940.6 193.3 930.1 185.5 916 185.5C899.5 185.5 889.3 194.2 885.7 208.4Z" fill="#0F2233"/>
    <path d="M997.1 283V116.2H1033.3V283H997.1Z" fill="#0F2233"/>
    <path d="M1056.9 283V116.2H1093.1V283H1056.9Z" fill="#0F2233"/>
    <path d="M1212.5 283H1178.4V268.7C1170.6 280.2 1158.7 288.5 1140 288.5C1110.9 288.5 1090.3 272.5 1090.3 246.5C1090.3 221 1110.2 206.3 1146.3 206.3H1174.4V203.4C1174.4 191.4 1166.8 184.2 1151.7 184.2C1137.7 184.2 1129.7 190.2 1127.1 200.8L1094 191.9C1099.5 170.4 1120.4 155.8 1153.2 155.8C1190.3 155.8 1212.5 173.1 1212.5 208.7V283ZM1174.4 230.6H1151.5C1135.3 230.6 1127.3 235.9 1127.3 245.6C1127.3 255.1 1135.6 260.4 1148 260.4C1164.4 260.4 1174.4 249 1174.4 234.2V230.6Z" fill="#0F2233"/>
    <path d="M1235.4 283V161.2H1269.5V177.1C1277.3 164.3 1289.3 155.8 1307.8 155.8C1338.7 155.8 1359.8 180.5 1359.8 222.1C1359.8 263.8 1338.7 288.5 1307.8 288.5C1291.9 288.5 1280.2 281.7 1272.6 271.7V326.6H1235.4V283ZM1296.7 257.7C1314.5 257.7 1322.6 243.9 1322.6 222.1C1322.6 200.4 1314.5 186.6 1296.7 186.6C1279.5 186.6 1271.1 200.4 1271.1 222.1C1271.1 243.9 1279.5 257.7 1296.7 257.7Z" fill="url(#lime)"/>
  </g>
</svg>
