<svg width="512" height="512" viewBox="0 0 512 512" fill="none" xmlns="http://www.w3.org/2000/svg">
  <defs>
    <linearGradient id="bg" x1="64" y1="48" x2="448" y2="464" gradientUnits="userSpaceOnUse">
      <stop stop-color="#102436"/>
      <stop offset="1" stop-color="#0A1522"/>
    </linearGradient>
    <linearGradient id="lime" x1="124" y1="116" x2="388" y2="372" gradientUnits="userSpaceOnUse">
      <stop stop-color="#B8FF5A"/>
      <stop offset="1" stop-color="#6EDB2F"/>
    </linearGradient>
    <filter id="shadow" x="40" y="40" width="432" height="432" filterUnits="userSpaceOnUse" color-interpolation-filters="sRGB">
      <feDropShadow dx="0" dy="14" stdDeviation="18" flood-color="#000000" flood-opacity="0.28"/>
    </filter>
  </defs>

  <rect x="56" y="56" width="400" height="400" rx="96" fill="url(#bg)"/>

  <g filter="url(#shadow)">
    <g transform="translate(102 98) rotate(-8 154 160)">
      <rect x="36" y="286" width="64" height="108" rx="22" fill="#EEF6FF"/>
      <rect x="52" y="282" width="34" height="118" rx="16" fill="#0E2233" opacity="0.92"/>

      <path d="M112 12C93 12 78 27 78 46V233C78 263 102 287 132 287H208C280 287 338 229 338 157V122C338 61 289 12 228 12H112Z" fill="#F7FBFF"/>
      <path d="M135 34C118 34 104 48 104 65V226C104 247 121 264 142 264H205C262 264 308 218 308 161V128C308 76 266 34 214 34H135Z" fill="#122838"/>

      <path d="M209 34H220C272 34 314 76 314 128V159C314 217 267 264 209 264V34Z" fill="#F7FBFF"/>

      <path d="M218 62V235" stroke="#122838" stroke-width="8" stroke-linecap="round"/>
      <path d="M248 62V235" stroke="#122838" stroke-width="8" stroke-linecap="round" opacity="0.82"/>
      <path d="M278 77V220" stroke="#122838" stroke-width="8" stroke-linecap="round" opacity="0.82"/>
      <path d="M218 93H305" stroke="#122838" stroke-width="8" stroke-linecap="round" opacity="0.82"/>
      <path d="M218 124H314" stroke="#122838" stroke-width="8" stroke-linecap="round" opacity="0.82"/>
      <path d="M218 155H314" stroke="#122838" stroke-width="8" stroke-linecap="round" opacity="0.82"/>
      <path d="M218 186H303" stroke="#122838" stroke-width="8" stroke-linecap="round" opacity="0.82"/>
      <path d="M218 217H280" stroke="#122838" stroke-width="8" stroke-linecap="round" opacity="0.82"/>

      <circle cx="145" cy="88" r="23" fill="url(#lime)"/>
    </g>
  </g>
</svg>
