<svg width="1400" height="420" viewBox="0 0 1400 420" fill="none" xmlns="http://www.w3.org/2000/svg">
  <defs>
    <linearGradient id="teal" x1="90" y1="70" x2="418" y2="426" gradientUnits="userSpaceOnUse">
      <stop stop-color="#57B883"/>
      <stop offset="1" stop-color="#2F6F73"/>
    </linearGradient>
    <linearGradient id="limeText" x1="1174" y1="160" x2="1350" y2="283" gradientUnits="userSpaceOnUse">
      <stop stop-color="#9ED23B"/>
      <stop offset="1" stop-color="#6EB838"/>
    </linearGradient>
    <filter id="soft" x="0" y="0" width="430" height="420" filterUnits="userSpaceOnUse" color-interpolation-filters="sRGB">
      <feDropShadow dx="0" dy="10" stdDeviation="12" flood-color="#000000" flood-opacity="0.12"/>
    </filter>
  </defs>

  <g filter="url(#soft)" transform="translate(0,-6)">
    <path d="M120 96H278C366 96 430 159 430 246C430 333 366 396 278 396H184V458H142C116 458 96 437 96 412V352C96 308 132 272 176 272H278C293 272 306 259 306 244C306 228 293 216 278 216H184C156 216 134 194 134 166V110C134 102 128 96 120 96Z" fill="url(#teal)"/>
    <path d="M130 96V294C143 282 159 274 176 272V216V96H130Z" fill="url(#teal)"/>
    <circle cx="268" cy="244" r="114" fill="white"/>
    <circle cx="268" cy="244" r="86" fill="#A7CF3A"/>
    <circle cx="268" cy="244" r="16" fill="white"/>
    <ellipse cx="268" cy="181" rx="13" ry="9" fill="white"/>
    <ellipse cx="225" cy="194" rx="11" ry="17" transform="rotate(35 225 194)" fill="white"/>
    <ellipse cx="201" cy="244" rx="9" ry="16" fill="white"/>
    <ellipse cx="225" cy="294" rx="11" ry="17" transform="rotate(-35 225 294)" fill="white"/>
    <ellipse cx="268" cy="307" rx="13" ry="9" fill="white"/>
    <ellipse cx="311" cy="294" rx="11" ry="17" transform="rotate(35 311 294)" fill="white"/>
    <ellipse cx="335" cy="244" rx="9" ry="16" fill="white"/>
    <ellipse cx="311" cy="194" rx="11" ry="17" transform="rotate(-35 311 194)" fill="white"/>
  </g>

  <g aria-label="PickleballMatch.fun">
    <path d="M441.6 283V129.4H502.1C536.3 129.4 559.7 150.9 559.7 182.8C559.7 214.9 536.3 236.6 502.1 236.6H478.8V283H441.6ZM478.8 204.7H498.9C514.1 204.7 522.1 196.3 522.1 182.8C522.1 169.6 514.1 161.2 498.9 161.2H478.8V204.7Z" fill="#0F2233"/>
    <path d="M578.4 145.7C567.2 145.7 558.3 137.4 558.3 126.6C558.3 115.8 567.2 107.6 578.4 107.6C589.6 107.6 598.5 115.8 598.5 126.6C598.5 137.4 589.6 145.7 578.4 145.7ZM560.4 283V161.2H596.6V283H560.4Z" fill="#0F2233"/>
    <path d="M621.1 283V116.2H657.3V214.8L705.8 161.2H748.7L699.3 214L751.8 283H708.3L673.8 236.7L657.3 254.4V283H621.1Z" fill="#0F2233"/>
    <path d="M757.3 283V116.2H793.5V214.8L842 161.2H884.9L835.5 214L888 283H844.5L810 236.7L793.5 254.4V283H757.3Z" fill="#0F2233"/>
    <path d="M945.5 246.2L975.5 264.8C963.8 279.5 944.4 288.5 919.3 288.5C878.9 288.5 849.7 261.7 849.7 221.8C849.7 183.1 878 155.8 916 155.8C951.9 155.8 978.5 181 978.5 218.6C978.5 224.1 978.1 228.5 977.5 232H885.2C888.8 248.1 901.2 256.9 919.7 256.9C930.4 256.9 939.7 253.1 945.5 246.2ZM885.7 208.4H943.5C940.6 193.3 930.1 185.5 916 185.5C899.5 185.5 889.3 194.2 885.7 208.4Z" fill="#0F2233"/>
    <path d="M997.1 283V116.2H1033.3V283H997.1Z" fill="#0F2233"/>
    <path d="M1056.9 283V116.2H1093.1V283H1056.9Z" fill="#0F2233"/>
    <path d="M1212.5 283H1178.4V268.7C1170.6 280.2 1158.7 288.5 1140 288.5C1110.9 288.5 1090.3 272.5 1090.3 246.5C1090.3 221 1110.2 206.3 1146.3 206.3H1174.4V203.4C1174.4 191.4 1166.8 184.2 1151.7 184.2C1137.7 184.2 1129.7 190.2 1127.1 200.8L1094 191.9C1099.5 170.4 1120.4 155.8 1153.2 155.8C1190.3 155.8 1212.5 173.1 1212.5 208.7V283ZM1174.4 230.6H1151.5C1135.3 230.6 1127.3 235.9 1127.3 245.6C1127.3 255.1 1135.6 260.4 1148 260.4C1164.4 260.4 1174.4 249 1174.4 234.2V230.6Z" fill="#0F2233"/>
    <path d="M1235.4 283V161.2H1269.5V177.1C1277.3 164.3 1289.3 155.8 1307.8 155.8C1338.7 155.8 1359.8 180.5 1359.8 222.1C1359.8 263.8 1338.7 288.5 1307.8 288.5C1291.9 288.5 1280.2 281.7 1272.6 271.7V326.6H1235.4V283ZM1296.7 257.7C1314.5 257.7 1322.6 243.9 1322.6 222.1C1322.6 200.4 1314.5 186.6 1296.7 186.6C1279.5 186.6 1271.1 200.4 1271.1 222.1C1271.1 243.9 1279.5 257.7 1296.7 257.7Z" fill="url(#limeText)"/>
  </g>
</svg>
