<svg width="512" height="512" viewBox="0 0 512 512" fill="none" xmlns="http://www.w3.org/2000/svg">
  <defs>
    <linearGradient id="teal" x1="90" y1="70" x2="418" y2="426" gradientUnits="userSpaceOnUse">
      <stop stop-color="#57B883"/>
      <stop offset="1" stop-color="#2F6F73"/>
    </linearGradient>
    <filter id="soft" x="32" y="24" width="448" height="464" filterUnits="userSpaceOnUse" color-interpolation-filters="sRGB">
      <feDropShadow dx="0" dy="10" stdDeviation="12" flood-color="#000000" flood-opacity="0.12"/>
    </filter>
  </defs>

  <g filter="url(#soft)">
    <!-- Outer P mark -->
    <path d="M120 96H278C366 96 430 159 430 246C430 333 366 396 278 396H184V458H142C116 458 96 437 96 412V352C96 308 132 272 176 272H278C293 272 306 259 306 244C306 228 293 216 278 216H184C156 216 134 194 134 166V110C134 102 128 96 120 96Z" fill="url(#teal)"/>
    <path d="M130 96V294C143 282 159 274 176 272V216V96H130Z" fill="url(#teal)"/>

    <!-- inner white ring / counter of P -->
    <circle cx="268" cy="244" r="114" fill="white"/>

    <!-- pickleball -->
    <circle cx="268" cy="244" r="86" fill="#A7CF3A"/>
    <circle cx="268" cy="244" r="16" fill="white"/>

    <!-- holes -->
    <ellipse cx="268" cy="181" rx="13" ry="9" fill="white"/>
    <ellipse cx="225" cy="194" rx="11" ry="17" transform="rotate(35 225 194)" fill="white"/>
    <ellipse cx="201" cy="244" rx="9" ry="16" fill="white"/>
    <ellipse cx="225" cy="294" rx="11" ry="17" transform="rotate(-35 225 294)" fill="white"/>
    <ellipse cx="268" cy="307" rx="13" ry="9" fill="white"/>
    <ellipse cx="311" cy="294" rx="11" ry="17" transform="rotate(35 311 294)" fill="white"/>
    <ellipse cx="335" cy="244" rx="9" ry="16" fill="white"/>
    <ellipse cx="311" cy="194" rx="11" ry="17" transform="rotate(-35 311 194)" fill="white"/>
  </g>
</svg>
